<svg width="1197" height="207" viewBox="0 0 1197 207" fill="none" xmlns="http://www.w3.org/2000/svg">
<rect width="1197" height="207" fill="#4E2A16"/>
<path fill-rule="evenodd" clip-rule="evenodd" d="M955.271 171.072C954.777 171.285 954.774 171.317 954.267 171.509C950.052 173.108 945.385 173.996 940.476 173.996C921.834 173.996 906.64 161.185 906.64 145.318C906.64 129.451 921.834 116.64 940.476 116.64C959.117 116.64 974.311 129.451 974.311 145.318C974.311 153.236 970.513 160.402 964.4 165.586C963.954 165.964 963.974 165.968 963.504 166.323C963.144 166.597 963.073 167.111 963.346 167.472C963.619 167.833 964.134 167.904 964.495 167.63C965.001 167.247 964.981 167.244 965.46 166.837C971.947 161.336 975.951 153.72 975.951 145.318C975.951 128.624 960.088 115 940.476 115C920.863 115 905 128.624 905 145.318C905 162.012 920.863 175.636 940.476 175.636C945.592 175.636 950.456 174.709 954.849 173.042C955.389 172.837 955.394 172.805 955.92 172.578C956.336 172.398 956.527 171.916 956.348 171.5C956.169 171.085 955.686 170.893 955.271 171.072Z" fill="#745848"/>
<path fill-rule="evenodd" clip-rule="evenodd" d="M966.361 181.044L963.168 167.242C963.066 166.802 963.341 166.361 963.782 166.259C964.223 166.157 964.664 166.432 964.766 166.873L968.586 183.389C968.668 183.744 968.507 184.11 968.19 184.288C967.874 184.467 967.477 184.416 967.216 184.162L955.101 172.389C954.776 172.074 954.769 171.555 955.084 171.23C955.399 170.905 955.919 170.898 956.244 171.213L966.361 181.044Z" fill="#745848"/>
<path fill-rule="evenodd" clip-rule="evenodd" d="M924.489 158.988C924.489 158.988 925.022 142.153 925.241 135.222C925.272 134.234 925.724 133.275 926.492 132.564C927.26 131.853 928.28 131.45 929.318 131.448C929.552 131.455 929.797 131.461 930.056 131.473C930.056 131.473 930.042 127.428 933.588 127.237C933.588 127.237 936.784 127.036 937.013 130.04C937.013 130.04 936.968 127.229 940.552 127.04C940.552 127.04 943.149 126.955 943.626 129.708C943.626 129.708 944.383 127.588 946.939 127.383C946.939 127.383 949.842 127.058 949.894 131.032C949.894 131.032 950.548 127.595 953.604 127.845C953.604 127.845 955.438 127.676 955.852 132.973C955.852 140.81 956.291 148.294 956.29 157.008C956.29 157.008 932.849 160.934 924.489 158.988Z" fill="#CB7E66"/>
<path fill-rule="evenodd" clip-rule="evenodd" d="M930.136 130.307L929.967 131.37C929.967 131.37 930.168 131.396 930.272 131.413C931.829 131.658 933.878 132.355 935.707 133.095C937.683 133.896 939.327 135.067 938.971 137C938.833 137.744 938.295 138.3 937.169 138.749C935.737 139.32 933.506 139.694 930.137 139.921C929.712 139.949 929.351 140.287 929.333 140.675C929.315 141.063 929.645 141.355 930.07 141.326C933.699 141.082 936.1 140.646 937.642 140.031C939.49 139.295 940.266 138.294 940.491 137.074C940.958 134.546 939.049 132.842 936.464 131.795C934.479 130.992 932.124 130.566 930.445 130.346C930.339 130.333 930.136 130.307 930.136 130.307Z" fill="black"/>
<path fill-rule="evenodd" clip-rule="evenodd" d="M942.508 148.723C941.449 147.257 939.953 146.047 938.445 144.99C938.132 144.771 938.123 144.336 938.423 144.02C938.724 143.704 939.221 143.625 939.533 143.844C941.128 144.962 942.695 146.248 943.829 147.792C945.158 147.022 946.708 146.535 947.95 146.445C948.382 146.413 948.705 146.699 948.671 147.082C948.636 147.466 948.258 147.802 947.826 147.834C946.837 147.906 945.6 148.294 944.543 148.909C944.603 149.018 944.66 149.127 944.715 149.238C945.193 150.208 945.539 151.611 944.824 152.753C944.404 153.422 943.855 153.76 943.323 153.893C942.818 154.019 942.3 153.956 941.861 153.73C941.286 153.434 940.854 152.852 940.805 152.158C940.713 150.863 941.404 149.688 942.491 148.737L942.508 148.723ZM943.23 149.902C942.676 150.465 942.32 151.124 942.372 151.85C942.389 152.089 942.517 152.296 942.696 152.429C942.823 152.523 942.972 152.595 943.132 152.555C943.267 152.521 943.373 152.403 943.479 152.234C943.686 151.902 943.705 151.535 943.659 151.18C943.602 150.738 943.432 150.312 943.259 149.96L943.23 149.902Z" fill="black"/>
<path fill-rule="evenodd" clip-rule="evenodd" d="M930.911 141.515C930.852 143.381 932.182 144.533 934.361 144.291C936.517 144.051 938.315 142.357 938.374 140.51L938.403 139.616C938.414 139.266 938.152 139.39 937.744 139.442C937.335 139.492 936.934 139.451 936.922 139.801L936.894 140.695C936.857 141.831 935.751 142.873 934.425 143.021C933.12 143.166 932.356 142.448 932.392 141.33C932.403 140.981 932.08 140.739 931.672 140.789C931.263 140.84 930.923 141.166 930.911 141.515Z" fill="black"/>
<path fill-rule="evenodd" clip-rule="evenodd" d="M937.904 127.376C937.367 127.776 936.97 128.463 936.775 129.566C936.7 129.117 936.594 128.696 936.429 128.332C936.429 128.332 936.531 131.446 936.495 132.754C936.484 133.149 936.807 133.418 937.216 133.355C937.625 133.292 937.966 132.921 937.977 132.527C938.019 131.001 937.904 127.376 937.904 127.376Z" fill="black"/>
<path fill-rule="evenodd" clip-rule="evenodd" d="M936.613 140.1C936.611 140.513 936.615 140.923 936.614 141.339C936.559 143.347 938.254 144.76 940.396 144.477C941.44 144.339 942.399 143.824 943.117 143.1C943.882 142.329 944.374 141.32 944.402 140.269C944.403 140.269 944.804 127.847 944.804 127.847C944.286 128.234 943.956 128.748 943.562 129.517C943.514 129.016 943.407 128.722 943.259 128.57L942.922 140.488C942.905 141.134 942.603 141.755 942.133 142.23C941.691 142.676 941.1 142.991 940.458 143.076C939.119 143.253 938.06 142.369 938.094 141.104C938.095 140.674 938.091 140.266 938.093 139.854C938.095 139.47 937.696 139.971 937.288 140.04C936.879 140.107 936.615 139.716 936.613 140.1Z" fill="black"/>
<path fill-rule="evenodd" clip-rule="evenodd" d="M942.969 140.887C942.913 142.903 944.596 144.365 946.736 144.083C948.891 143.8 950.686 141.921 950.742 139.89L951.054 128.527C950.4 129.07 949.966 129.99 949.607 131.037L949.548 129.72L949.262 140.106C949.228 141.356 948.123 142.512 946.797 142.687C945.456 142.863 944.414 141.934 944.448 140.67C944.459 140.286 944.136 140.022 943.728 140.081C943.319 140.142 942.979 140.502 942.969 140.887Z" fill="black"/>
<path fill-rule="evenodd" clip-rule="evenodd" d="M949.596 140.957C949.572 141.704 950.04 142.466 950.764 142.983C951.495 143.504 952.468 143.708 953.346 143.593C954.919 143.387 955.576 142.047 955.576 142.047L955.558 139.846C955.558 139.846 954.689 142.07 953.272 142.341C952.768 142.438 952.236 142.236 951.816 141.937C951.389 141.632 951.062 141.212 951.076 140.771C951.087 140.421 950.765 140.178 950.356 140.229C949.948 140.28 949.607 140.606 949.596 140.957Z" fill="black"/>
<path fill-rule="evenodd" clip-rule="evenodd" d="M307.318 86.8102C307.874 87.037 307.879 87.0709 308.45 87.2761C313.202 88.9818 318.465 89.9295 324 89.9295C345.019 89.9295 362.151 76.2642 362.151 59.3393C362.151 42.4145 345.019 28.7491 324 28.7491C302.982 28.7491 285.849 42.4145 285.849 59.3393C285.849 67.7855 290.132 75.4289 297.025 80.9586C297.527 81.3614 297.505 81.3655 298.034 81.745C298.441 82.0364 298.521 82.5855 298.213 82.9702C297.905 83.3549 297.324 83.4307 296.918 83.139C296.347 82.7302 296.37 82.7267 295.829 82.2927C288.515 76.425 284 68.3015 284 59.3393C284 41.5324 301.886 27 324 27C346.114 27 364 41.5324 364 59.3393C364 77.1463 346.114 91.6787 324 91.6787C318.231 91.6787 312.747 90.6894 307.794 88.9115C307.184 88.6929 307.179 88.6584 306.586 88.4162C306.117 88.225 305.901 87.7101 306.103 87.2668C306.305 86.8236 306.85 86.6189 307.318 86.8102Z" fill="#745848"/>
<path fill-rule="evenodd" clip-rule="evenodd" d="M294.814 97.4473L298.414 82.7254C298.529 82.2551 298.218 81.7848 297.721 81.6761C297.224 81.5673 296.727 81.8606 296.612 82.3309L292.304 99.9487C292.212 100.327 292.394 100.717 292.751 100.908C293.108 101.098 293.555 101.043 293.849 100.773L307.51 88.2154C307.876 87.8792 307.884 87.325 307.528 86.9786C307.173 86.6326 306.587 86.6244 306.221 86.9609L294.814 97.4473Z" fill="#745848"/>
<path fill-rule="evenodd" clip-rule="evenodd" d="M307.489 74.988C307.489 74.988 308.022 58.1527 308.241 51.2223C308.272 50.2345 308.724 49.2755 309.492 48.564C310.26 47.8527 311.28 47.4501 312.318 47.448C312.552 47.4556 312.797 47.4612 313.056 47.4735C313.056 47.4735 313.042 43.4278 316.588 43.2373C316.588 43.2373 319.784 43.0363 320.013 46.0405C320.013 46.0405 319.968 43.2292 323.552 43.0404C323.552 43.0404 326.149 42.9553 326.626 45.7081C326.626 45.7081 327.383 43.5877 329.939 43.3834C329.939 43.3834 332.842 43.0579 332.894 47.0326C332.894 47.0326 333.548 43.5956 336.604 43.8449C336.604 43.8449 338.438 43.6761 338.852 48.9727C338.852 56.8104 339.291 64.2945 339.29 73.0077C339.29 73.0077 315.849 76.9341 307.489 74.988Z" fill="#CA9885"/>
<path fill-rule="evenodd" clip-rule="evenodd" d="M313.136 46.3076L312.967 47.37C312.967 47.37 313.168 47.3965 313.272 47.4129C314.829 47.6579 316.878 48.3552 318.707 49.0955C320.683 49.8957 322.327 51.0674 321.971 53.0003C321.833 53.7439 321.295 54.3006 320.169 54.7493C318.737 55.3198 316.506 55.6944 313.137 55.9209C312.712 55.9493 312.351 56.2874 312.333 56.6753C312.315 57.0634 312.645 57.3548 313.07 57.3264C316.699 57.0824 319.1 56.6457 320.642 56.0315C322.49 55.2952 323.266 54.2944 323.491 53.074C323.958 50.546 322.049 48.8421 319.464 47.7956C317.479 46.9918 315.124 46.5658 313.445 46.3465C313.339 46.3328 313.136 46.3076 313.136 46.3076Z" fill="black"/>
<path fill-rule="evenodd" clip-rule="evenodd" d="M325.508 64.7229C324.449 63.2568 322.953 62.0475 321.445 60.9898C321.132 60.7711 321.123 60.3366 321.423 60.0204C321.724 59.7041 322.221 59.6251 322.533 59.844C324.128 60.9619 325.695 62.2484 326.829 63.7917C328.158 63.0218 329.708 62.5355 330.95 62.445C331.382 62.4136 331.705 62.699 331.671 63.0824C331.636 63.4656 331.258 63.8025 330.826 63.8339C329.837 63.906 328.6 64.2941 327.543 64.9089C327.603 65.0177 327.66 65.1273 327.715 65.2384C328.193 66.2084 328.539 67.6108 327.824 68.7527C327.404 69.4223 326.855 69.7605 326.323 69.8931C325.818 70.0192 325.3 69.9565 324.861 69.7302C324.286 69.4342 323.854 68.8521 323.805 68.1577C323.713 66.8629 324.404 65.6883 325.491 64.7376L325.508 64.7229ZM326.23 65.9025C325.676 66.4653 325.32 67.1246 325.372 67.8501C325.389 68.0894 325.517 68.2961 325.696 68.4293C325.823 68.5233 325.972 68.5947 326.132 68.5546C326.267 68.5211 326.373 68.4035 326.479 68.2341C326.686 67.9026 326.705 67.5352 326.659 67.1805C326.602 66.7378 326.432 66.312 326.259 65.9605L326.23 65.9025Z" fill="black"/>
<path fill-rule="evenodd" clip-rule="evenodd" d="M313.911 57.5153C313.852 59.3814 315.182 60.5336 317.361 60.2912C319.517 60.0514 321.315 58.3572 321.374 56.5103L321.403 55.6166C321.414 55.2664 321.152 55.3904 320.744 55.4417C320.335 55.4925 319.934 55.4514 319.922 55.801L319.894 56.6948C319.857 57.8312 318.751 58.8736 317.425 59.0212C316.12 59.1663 315.356 58.4481 315.392 57.3304C315.403 56.9808 315.08 56.7387 314.672 56.7894C314.263 56.8402 313.923 57.1657 313.911 57.5153Z" fill="black"/>
<path fill-rule="evenodd" clip-rule="evenodd" d="M320.904 43.3766C320.367 43.7762 319.97 44.4627 319.775 45.5664C319.7 45.1173 319.594 44.6965 319.429 44.3319C319.429 44.3319 319.531 47.4461 319.495 48.7538C319.484 49.1487 319.807 49.4179 320.216 49.3549C320.625 49.2926 320.966 48.921 320.977 48.5267C321.019 47.001 320.904 43.3766 320.904 43.3766Z" fill="black"/>
<path fill-rule="evenodd" clip-rule="evenodd" d="M319.613 56.1001C319.611 56.5134 319.615 56.9234 319.614 57.3391C319.559 59.3467 321.254 60.7605 323.396 60.477C324.44 60.3388 325.399 59.8242 326.117 59.1C326.882 58.3296 327.374 57.3198 327.403 56.2695C327.403 56.2689 327.804 43.8472 327.804 43.8472C327.286 44.2343 326.956 44.7485 326.562 45.5169C326.514 45.0157 326.407 44.7218 326.259 44.5703L325.922 56.4882C325.905 57.1339 325.603 57.7554 325.133 58.2301C324.691 58.6757 324.1 58.9909 323.458 59.076C322.119 59.2531 321.06 58.3696 321.094 57.1043C321.095 56.6738 321.091 56.2657 321.093 55.8542C321.095 55.4699 320.696 55.9716 320.288 56.0398C319.879 56.1075 319.615 55.7157 319.613 56.1001Z" fill="black"/>
<path fill-rule="evenodd" clip-rule="evenodd" d="M325.969 56.8867C325.913 58.9031 327.596 60.365 329.736 60.0835C331.891 59.8 333.686 57.9207 333.742 55.8897L334.054 44.5272C333.4 45.07 332.966 45.9904 332.607 47.0376L332.548 45.7201L332.262 56.1065C332.228 57.3561 331.124 58.5123 329.797 58.6868C328.456 58.8632 327.414 57.9342 327.448 56.67C327.459 56.2857 327.136 56.022 326.728 56.0815C326.319 56.1417 325.979 56.5025 325.969 56.8867Z" fill="black"/>
<path fill-rule="evenodd" clip-rule="evenodd" d="M332.596 56.9568C332.572 57.7038 333.04 58.466 333.764 58.9828C334.495 59.5041 335.468 59.708 336.346 59.5929C337.919 59.3866 338.576 58.0475 338.576 58.0475L338.558 55.8463C338.558 55.8463 337.689 58.07 336.272 58.3412C335.768 58.4379 335.236 58.2365 334.816 57.9368C334.389 57.6325 334.062 57.2119 334.076 56.7716C334.087 56.4214 333.765 56.1781 333.356 56.2295C332.948 56.2805 332.607 56.6066 332.596 56.9568Z" fill="black"/>
<path fill-rule="evenodd" clip-rule="evenodd" d="M308.782 183.997H423C423 183.997 422.807 179.193 416.708 175.629C413.699 173.875 410.248 173.028 406.771 173.189C405.144 173.265 402.94 173.26 400.516 172.958C395.793 172.363 391.631 169.566 389.297 165.418C386.51 160.499 380.753 153.645 370.477 154.21C366.222 154.444 360.578 156.342 348.294 170.216C348.294 170.216 340.214 178.292 326.933 175.714C326.933 175.714 312.42 174.463 308.782 183.997Z" fill="#6D5344"/>
<path fill-rule="evenodd" clip-rule="evenodd" d="M152.919 187.402H256.754C256.754 187.402 252.515 178.629 245.442 179.043C239.259 179.406 234.809 181.422 229.342 179.549C224.436 177.869 213.702 159.216 200.487 160.532C195.979 160.981 188.675 161.919 183.03 169.557C179.964 173.705 176.754 178.474 167.676 176.196C159.33 174.103 153.556 178.133 152.919 187.402Z" fill="#6D5344" fill-opacity="0.5"/>
<path fill-rule="evenodd" clip-rule="evenodd" d="M975 129H1132C1132 129 1131.74 124.167 1123.35 120.581C1119.22 118.817 1114.47 117.965 1109.69 118.127C1107.46 118.204 1104.43 118.198 1101.09 117.894C1094.6 117.296 1088.88 114.482 1085.67 110.309C1081.84 105.36 1073.93 98.4643 1059.8 99.033C1053.95 99.268 1046.2 101.177 1029.31 115.136C1029.31 115.136 1018.21 123.261 999.949 120.667C999.949 120.667 980.001 119.408 975 129Z" fill="#6D5344" fill-opacity="0.3"/>
<path fill-rule="evenodd" clip-rule="evenodd" d="M771 103.819H885.218C885.218 103.819 885.025 99.0153 878.926 95.4512C875.918 93.6978 872.466 92.8508 868.989 93.012C867.362 93.088 865.158 93.0825 862.734 92.7804C858.011 92.1854 853.849 89.3886 851.515 85.2406C848.728 80.3215 842.971 73.4675 832.695 74.0328C828.44 74.2664 822.796 76.1643 810.512 90.0391C810.512 90.0391 802.432 98.1146 789.151 95.5364C789.151 95.5364 774.638 94.2854 771 103.819Z" fill="#6D5344" fill-opacity="0.5"/>
<path fill-rule="evenodd" clip-rule="evenodd" d="M478 61H601C601 61 595.979 52.2067 587.601 52.621C580.276 52.9852 575.005 55.0065 568.528 53.1282C562.717 51.445 550.002 32.7475 534.347 34.0666C529.007 34.5162 520.356 35.4563 513.669 43.1125C510.037 47.2704 506.235 52.0507 495.481 49.7674C485.595 47.6698 478.755 51.7088 478 61Z" fill="#6D5344"/>
<path fill-rule="evenodd" clip-rule="evenodd" d="M1120 184H1243C1243 184 1237.98 175.207 1229.6 175.621C1222.28 175.985 1217 178.007 1210.53 176.128C1204.72 174.445 1192 155.748 1176.35 157.067C1171.01 157.516 1162.36 158.456 1155.67 166.113C1152.04 170.27 1148.23 175.051 1137.48 172.767C1127.59 170.67 1120.76 174.709 1120 184Z" fill="#6D5344"/>
<path fill-rule="evenodd" clip-rule="evenodd" d="M747 187.224H850.835C850.835 187.224 846.596 178.452 839.523 178.865C833.34 179.228 828.89 181.245 823.423 179.371C818.517 177.692 807.783 159.039 794.568 160.355C790.06 160.803 782.756 161.741 777.112 169.379C774.045 173.527 770.835 178.296 761.757 176.018C753.411 173.926 747.637 177.955 747 187.224Z" fill="#6D5344" fill-opacity="0.3"/>
<path fill-rule="evenodd" clip-rule="evenodd" d="M466.386 104.424L457.425 138.512L498.056 148.835L507.641 114.23L466.386 104.424Z" fill="white"/>
<path fill-rule="evenodd" clip-rule="evenodd" d="M458.466 135.286C458.466 135.286 462.256 134.646 466.876 134.431C475.108 134.047 486.782 135.334 495.919 140.542C497.448 141.413 498.636 142.965 499.772 144.338L498.573 148.504L457.601 138.58L458.466 135.286Z" fill="#B8CDF3"/>
<path d="M479.245 117.623C479.245 117.623 478.49 116.337 481.349 115.905C481.349 115.905 490.978 114.938 492.347 122.784C492.347 122.784 497.516 119.9 499.054 125.342C499.346 126.373 498.45 129.793 494.342 129.857C494.342 129.857 496.027 133.838 491.476 135.045C490.747 135.238 488.129 135.227 487.276 132.785" stroke="#EF7B58" stroke-width="0.836603" stroke-miterlimit="2.28659" stroke-linecap="round" stroke-linejoin="round"/>
<path d="M479.132 121.999C479.132 121.999 475.572 117.677 472.513 121.999C471.61 123.275 471.443 125.388 474.001 126.369C474.001 126.369 471.193 129.4 474.001 132.015C474.001 132.015 477.065 134.103 479.132 130.713" stroke="#EF7B58" stroke-width="0.836603" stroke-miterlimit="2.28659" stroke-linecap="round" stroke-linejoin="round"/>
<path fill-rule="evenodd" clip-rule="evenodd" d="M465.787 134.488C465.787 134.488 484.839 141.636 496.03 140.646C496.03 140.646 490.261 137.041 488.122 136.223L490.001 128.969C490.001 128.969 494.506 128.15 493.339 125.5C492.946 124.607 491.637 124.359 490.001 125.102C490.001 125.102 483.675 122.893 484.2 117.714C484.2 117.714 480.122 118.842 478.839 116.765C478.839 116.765 477.122 122.555 475.923 126.599C475.272 128.793 476.351 131.129 478.442 132.058L477.913 133.706C477.913 133.706 468.296 134.145 465.787 134.488Z" fill="#B74D2F"/>
<path fill-rule="evenodd" clip-rule="evenodd" d="M488.822 136.566L488.094 136.151L487.806 137.112C487.743 137.335 487.873 137.566 488.094 137.629C488.317 137.69 488.548 137.561 488.611 137.339L488.822 136.566Z" fill="black"/>
<path fill-rule="evenodd" clip-rule="evenodd" d="M478.442 132.058C478.442 132.058 481.347 132.734 483.932 132.208C484.038 132.183 484.146 132.24 484.185 132.34C484.224 132.441 484.184 132.556 484.09 132.609C483.92 132.699 483.689 132.795 483.378 132.895C483.378 132.895 480.919 133.664 478.072 133.269" fill="black"/>
<path fill-rule="evenodd" clip-rule="evenodd" d="M464.393 163.572C464.057 162.665 464.118 161.639 464.596 160.762C465.231 159.598 466.483 158.909 467.805 158.995C468.523 159.042 469.379 159.183 470.323 159.504C470.539 159.578 470.655 159.814 470.581 160.03C470.508 160.247 470.272 160.363 470.055 160.289C469.191 159.995 468.409 159.865 467.75 159.823C466.751 159.757 465.804 160.279 465.324 161.159C464.844 162.039 464.919 163.117 465.515 163.922C467.347 166.376 472.021 167.839 472.021 167.839C472.239 167.909 472.36 168.141 472.291 168.36C472.222 168.578 471.989 168.699 471.77 168.629C471.77 168.629 466.804 167.036 464.85 164.416C464.828 164.387 464.808 164.357 464.787 164.327C464.214 164.847 463.91 165.381 463.827 165.924C463.689 166.811 464.119 167.696 464.768 168.519C466.537 170.763 469.97 172.528 469.97 172.528C470.173 172.633 470.253 172.883 470.148 173.086C470.044 173.289 469.794 173.369 469.59 173.264C469.59 173.264 466.122 171.47 464.229 169.171C464.224 169.18 464.218 169.188 464.211 169.196C463.679 169.863 463.432 170.513 463.406 171.139C463.366 172.093 463.83 172.981 464.489 173.77C466.255 175.886 469.443 177.302 469.443 177.302C469.651 177.395 469.746 177.641 469.653 177.85C469.559 178.059 469.315 178.152 469.106 178.059C469.106 178.059 465.951 176.647 464.046 174.525C463.714 175.198 463.962 176.002 464.434 176.82C465.874 179.312 469.514 181.88 469.514 181.88C469.701 182.012 469.745 182.271 469.613 182.458C469.48 182.645 469.222 182.689 469.034 182.557C469.034 182.557 468.063 181.866 466.906 180.845L465.496 189.404C465.458 189.629 465.245 189.783 465.019 189.745C464.793 189.709 464.64 189.495 464.678 189.27L466.158 180.292C466.164 180.255 466.174 180.221 466.189 180.188C465.257 179.302 464.31 178.262 463.717 177.235C463.01 176.011 462.808 174.803 463.495 173.837C462.903 173 462.537 172.076 462.578 171.105C462.61 170.325 462.901 169.509 463.563 168.68C463.616 168.613 463.686 168.567 463.763 168.543C463.179 167.66 462.863 166.723 463.007 165.798C463.123 165.053 463.531 164.304 464.365 163.594C464.375 163.587 464.384 163.58 464.393 163.572ZM476.345 160.809C476.345 160.809 476.534 160.855 476.846 160.933C480.138 161.744 482.453 164.697 482.453 168.089V188.111C482.453 188.339 482.639 188.525 482.867 188.525C483.096 188.525 483.282 188.339 483.282 188.111V168.089C483.282 164.316 480.707 161.03 477.044 160.128C476.732 160.051 476.544 160.004 476.544 160.004C476.322 159.95 476.097 160.086 476.042 160.307C475.988 160.53 476.124 160.755 476.345 160.809ZM468.247 161.8C468.247 161.8 474.026 163.932 476.964 163.355C477.189 163.311 477.336 163.093 477.292 162.868C477.248 162.644 477.029 162.497 476.805 162.541C475.704 162.758 474.18 162.555 472.745 162.245C470.535 161.768 468.537 161.023 468.537 161.023C468.322 160.943 468.083 161.052 468.003 161.266C467.923 161.481 468.033 161.719 468.247 161.8Z" fill="#EF7B58"/>
<path fill-rule="evenodd" clip-rule="evenodd" d="M460.933 206.512L462.947 187.917H487.726L485.328 206.512H460.933Z" fill="#4773C3"/>
<path fill-rule="evenodd" clip-rule="evenodd" d="M469.509 161.358L473.73 142.655L480.307 144.139L476.135 162.621C475.128 162.677 473.906 162.496 472.745 162.245C471.489 161.974 470.301 161.616 469.509 161.358Z" fill="#81A4E8"/>
<path fill-rule="evenodd" clip-rule="evenodd" d="M466.675 104.909L457.816 138.608C457.757 138.829 457.531 138.962 457.309 138.904C457.088 138.845 456.956 138.618 457.013 138.397L465.976 104.309C466.032 104.093 466.252 103.96 466.469 104.011L507.947 113.559C508.17 113.611 508.31 113.833 508.258 114.056C508.206 114.279 507.985 114.418 507.761 114.367L466.675 104.909Z" fill="#81A4E8"/>
<path fill-rule="evenodd" clip-rule="evenodd" d="M498.004 148.303L507.454 113.854C507.515 113.633 507.743 113.503 507.964 113.564C508.184 113.624 508.314 113.852 508.253 114.073L498.696 148.913C498.637 149.131 498.414 149.261 498.195 149.205L457.314 138.905C457.092 138.848 456.957 138.623 457.012 138.402C457.069 138.18 457.294 138.045 457.516 138.1L498.004 148.303Z" fill="#81A4E8"/>
<path fill-rule="evenodd" clip-rule="evenodd" d="M205.849 189.027L206.145 165.949L212.394 162.522C212.394 162.522 212.03 148.813 215.556 150.593C215.556 150.593 216.85 153.902 217.398 155.619C217.398 155.619 218.997 159.775 220.67 162.268C220.67 162.268 223.596 168.194 224.082 180.023V188.765L205.849 189.027Z" fill="white"/>
<path d="M205.742 179.133C205.883 179.063 205.859 187.356 205.815 188.765" stroke="black" stroke-width="0.836603" stroke-miterlimit="2.28659" stroke-linecap="round" stroke-linejoin="round"/>
<path fill-rule="evenodd" clip-rule="evenodd" d="M183.868 57.9308L241.744 62.8413L237.4 112.583L179.753 106.208L183.868 57.9308Z" fill="white"/>
<path fill-rule="evenodd" clip-rule="evenodd" d="M201.764 74.4993C201.725 74.4942 201.687 74.4836 201.65 74.4672C201.439 74.374 201.343 74.1268 201.436 73.9156C201.436 73.9156 201.658 73.4136 201.96 72.7305C203.039 70.2864 205.327 68.5925 207.98 68.2741C209.038 68.1471 210.207 68.0067 211.364 67.8677C215.43 67.3796 219.222 69.998 220.206 73.9731L224.266 90.3687C224.702 90.2237 225.402 90.0341 226.15 89.9995C227.033 89.9589 227.976 90.1362 228.683 90.7854C229.328 91.378 229.8 92.3838 229.787 94.0529C230.532 93.7414 231.835 93.2779 233.202 93.1723C234.679 93.0582 236.22 93.3629 237.278 94.6224C238.079 95.5758 238.615 97.101 238.577 99.4791C238.573 99.7099 238.382 99.8943 238.151 99.8906C238.101 99.8898 238.052 99.8799 238.008 99.8627C238.006 99.9344 238.004 100.007 238.001 100.081L224.261 92.6644L194.301 92.0984L183.64 95.2105C183.636 95.2849 183.633 95.3597 183.63 95.435C183.622 95.6657 183.428 95.8461 183.197 95.8378C182.966 95.8295 182.786 95.6354 182.794 95.4047C182.944 91.2621 184.272 88.767 186.025 87.2904C187.673 85.9021 189.711 85.4074 191.567 85.3239C193.133 85.2533 194.566 85.4747 195.505 85.6771C195.838 85.7023 196.122 85.732 196.345 85.7588L201.027 76.6423C201.083 76.5348 201.178 76.4614 201.286 76.431L201.742 74.5746C201.749 74.5495 201.756 74.5245 201.764 74.4993Z" fill="#FFD57E"/>
<path fill-rule="evenodd" clip-rule="evenodd" d="M180.961 96.6773L194.247 92.5888C194.468 92.5209 194.592 92.2867 194.524 92.066C194.456 91.8454 194.221 91.7213 194.001 91.7892L180.715 95.8776C180.494 95.9455 180.37 96.1798 180.438 96.4004C180.506 96.6211 180.74 96.7451 180.961 96.6773Z" fill="#D30101"/>
<path fill-rule="evenodd" clip-rule="evenodd" d="M238.899 100.092C238.899 100.092 232.497 96.2309 227.868 93.8878C225.814 92.8476 224.087 92.1186 223.375 92.095C223.144 92.0873 222.95 92.2684 222.943 92.4992C222.935 92.7299 223.116 92.9235 223.347 92.9311C224.007 92.953 225.588 93.671 227.491 94.6342C232.096 96.9658 238.467 100.809 238.467 100.809C238.665 100.928 238.922 100.864 239.041 100.667C239.16 100.469 239.097 100.212 238.899 100.092Z" fill="#D30101"/>
<path fill-rule="evenodd" clip-rule="evenodd" d="M193.436 92.0156C193.436 92.0156 206.466 107.448 225.247 92.6532C225.247 92.6532 221.96 91.2999 218.772 90.5465L219.395 79.2708C220.832 79.3624 222.826 75.9056 220.053 74.4562C219.203 74.0115 217.455 74.9993 216.875 77.375C216.875 77.375 210.745 77.2794 207.709 71.4771C207.709 71.4771 204.802 74.5167 201.388 73.9044C200.754 76.2818 200.073 78.5863 200.308 82.3101C200.409 84.1818 201.777 85.7416 203.62 86.0864C204.403 86.2395 205.038 86.3586 205.038 86.3586L205.006 89.2177C205.006 89.2177 198.112 90.2095 193.436 92.0156Z" fill="#B74D2F"/>
<path fill-rule="evenodd" clip-rule="evenodd" d="M219.525 90.8071L218.686 90.53L218.604 92.4486C218.601 92.674 218.798 92.8864 219.044 92.9224C219.29 92.9588 219.492 92.8053 219.495 92.5799L219.525 90.8071Z" fill="#952A2B"/>
<path fill-rule="evenodd" clip-rule="evenodd" d="M205.038 86.3586C204.504 86.3815 206.767 86.428 209.727 86.2135C209.87 86.2032 209.999 86.2991 210.031 86.4391C210.062 86.5791 209.986 86.7211 209.852 86.7729C207.86 87.5441 205.033 88.6387 205.033 88.6387L205.038 86.3586Z" fill="#952A2B"/>
<path d="M215.556 110.146L207.885 109.654L204.94 179.531L212.61 180.024L215.556 110.146Z" fill="#81A4E8"/>
<path fill-rule="evenodd" clip-rule="evenodd" d="M236.853 112.179L241.007 62.0975C241.036 61.7523 241.339 61.4954 241.684 61.524C242.029 61.5527 242.286 61.8561 242.258 62.2013L238.05 112.923C238.036 113.092 237.955 113.247 237.825 113.355C237.694 113.463 237.526 113.513 237.358 113.495L179.828 107.346C179.484 107.309 179.234 107 179.271 106.656C179.307 106.311 179.617 106.062 179.961 106.098L236.853 112.179Z" fill="#81A4E8"/>
<path fill-rule="evenodd" clip-rule="evenodd" d="M184.117 58.3019L180.52 106.769C180.495 107.114 180.193 107.374 179.848 107.348C179.503 107.322 179.243 107.021 179.269 106.676L182.912 57.581C182.925 57.4147 183.003 57.2601 183.129 57.1514C183.256 57.0428 183.42 56.9889 183.587 57.0019L241.681 61.5238C242.026 61.5507 242.285 61.8528 242.258 62.198C242.231 62.5433 241.929 62.8018 241.584 62.7749L184.117 58.3019Z" fill="#81A4E8"/>
<path fill-rule="evenodd" clip-rule="evenodd" d="M208.318 157.248C208.318 157.248 205.497 155.832 205.423 158.493L207.114 161.357C207.114 161.357 204.523 160.94 204.569 162.951C204.569 162.951 204.732 163.898 205.939 165.616L206.373 166.317C206.373 166.317 203.119 165.037 203.682 168.31L205.26 170.475C205.26 170.475 202.274 170.261 202.807 172.196L206.244 177.456C206.244 177.456 207.577 176.978 207.517 175.858L206.125 171.767C206.125 171.767 208.901 172.968 208.806 170.4L207.517 168.066C207.517 168.066 210.347 167.349 209.432 165.205L208.318 162.81C208.318 162.81 211.302 162.783 210.247 160.366L208.318 157.248Z" fill="white"/>
<path fill-rule="evenodd" clip-rule="evenodd" d="M208.812 156.956C208.265 156.051 207.008 155.841 206.007 156.486C205.007 157.131 204.638 158.388 205.185 159.293L206.999 162.291C207.113 162.479 207.374 162.523 207.582 162.389C207.79 162.254 207.867 161.993 207.753 161.805L205.94 158.807C205.62 158.279 205.835 157.544 206.419 157.167C207.004 156.79 207.738 156.914 208.058 157.442C208.171 157.629 208.433 157.673 208.641 157.539C208.849 157.405 208.925 157.143 208.812 156.956Z" fill="black"/>
<path fill-rule="evenodd" clip-rule="evenodd" d="M207.053 162.348C207.6 163.253 208.857 163.463 209.857 162.818C210.858 162.173 211.226 160.916 210.679 160.011L208.866 157.013C208.752 156.825 208.49 156.781 208.282 156.915C208.074 157.049 207.997 157.311 208.111 157.499L209.925 160.497C210.245 161.025 210.03 161.76 209.445 162.137C208.861 162.514 208.127 162.39 207.807 161.862C207.694 161.675 207.432 161.631 207.224 161.765C207.016 161.899 206.94 162.161 207.053 162.348Z" fill="black"/>
<path fill-rule="evenodd" clip-rule="evenodd" d="M208.011 161.819C207.464 160.914 206.207 160.704 205.206 161.349C204.206 161.994 203.837 163.252 204.384 164.156L206.198 167.154C206.312 167.342 206.573 167.386 206.781 167.252C206.99 167.118 207.066 166.856 206.952 166.668L205.139 163.67C204.819 163.142 205.034 162.407 205.618 162.03C206.203 161.654 206.937 161.777 207.257 162.305C207.37 162.492 207.632 162.537 207.84 162.402C208.048 162.268 208.124 162.006 208.011 161.819Z" fill="black"/>
<path fill-rule="evenodd" clip-rule="evenodd" d="M206.252 167.212C206.799 168.116 208.055 168.327 209.056 167.682C210.057 167.037 210.425 165.779 209.878 164.875L208.064 161.876C207.95 161.688 207.689 161.645 207.481 161.779C207.273 161.913 207.196 162.174 207.31 162.362L209.124 165.361C209.443 165.889 209.228 166.624 208.644 167C208.059 167.377 207.325 167.254 207.006 166.726C206.893 166.538 206.631 166.494 206.423 166.628C206.215 166.762 206.138 167.024 206.252 167.212Z" fill="black"/>
<path fill-rule="evenodd" clip-rule="evenodd" d="M207.116 166.338C206.57 165.435 205.315 165.225 204.316 165.869C203.317 166.513 202.949 167.768 203.495 168.671C203.498 168.677 205.206 171.393 205.206 171.393C205.322 171.578 205.585 171.618 205.79 171.481C205.997 171.344 206.069 171.083 205.952 170.897L204.244 168.18C203.929 167.659 204.144 166.925 204.727 166.549C205.311 166.173 206.044 166.296 206.363 166.823C206.476 167.01 206.737 167.055 206.945 166.921C207.153 166.787 207.229 166.525 207.116 166.338Z" fill="black"/>
<path fill-rule="evenodd" clip-rule="evenodd" d="M205.259 171.458C205.571 171.973 206.17 172.372 206.806 172.476C207.27 172.552 207.751 172.474 208.168 172.206C209.169 171.56 209.538 170.302 208.99 169.398L207.176 166.398C207.062 166.21 206.801 166.166 206.592 166.3C206.384 166.435 206.307 166.696 206.421 166.884L208.236 169.884C208.555 170.412 208.34 171.147 207.756 171.524C207.538 171.664 207.287 171.689 207.045 171.65C206.621 171.58 206.221 171.315 206.014 170.971C205.9 170.783 205.638 170.74 205.43 170.874C205.222 171.008 205.145 171.269 205.259 171.458Z" fill="black"/>
<path fill-rule="evenodd" clip-rule="evenodd" d="M206.195 170.835C206.524 171.266 206.958 172.265 207.237 173.142C207.304 173.353 207.174 173.597 206.949 173.688C206.722 173.779 206.485 173.682 206.418 173.472C206.164 172.671 205.778 171.75 205.48 171.369C205.472 171.358 205.464 171.347 205.457 171.335C205.139 170.81 204.41 170.688 203.829 171.062C203.248 171.436 203.035 172.167 203.352 172.691C203.465 172.877 203.389 173.138 203.182 173.271C202.976 173.404 202.716 173.36 202.603 173.174C202.059 172.275 202.425 171.026 203.42 170.385C204.407 169.749 205.646 169.951 206.195 170.835Z" fill="black"/>
<path fill-rule="evenodd" clip-rule="evenodd" d="M202.664 173.252L204.486 176.264C204.768 176.73 205.091 177.287 205.448 177.579C205.814 177.877 206.219 177.946 206.647 177.705C206.909 177.558 207.172 177.244 207.353 176.786C207.679 175.959 207.784 174.589 207.349 173.22C207.281 173.007 207.041 172.908 206.813 173.001C206.584 173.092 206.454 173.34 206.521 173.553C206.839 174.555 206.834 175.555 206.649 176.266C206.595 176.476 206.525 176.657 206.441 176.8C206.392 176.885 206.346 176.956 206.285 176.99C206.238 177.017 206.195 177.002 206.153 176.98C206.072 176.938 205.997 176.87 205.922 176.789C205.672 176.517 205.45 176.116 205.244 175.776L203.422 172.764C203.307 172.575 203.045 172.532 202.836 172.666C202.627 172.801 202.55 173.063 202.664 173.252Z" fill="black"/>
<path fill-rule="evenodd" clip-rule="evenodd" d="M213.094 168.429C211.642 165.238 211.933 161.207 212.181 157.795C212.322 155.868 212.506 153.931 212.956 152.048C213.063 151.602 213.259 151.011 213.6 150.632C213.887 150.312 214.264 150.123 214.756 150.186C215.178 150.24 215.535 150.455 215.829 150.761C216.207 151.154 216.478 151.7 216.659 152.147C217.445 154.091 217.8 156.048 218.816 157.926C220.121 160.34 221.545 162.691 222.377 165.323C224.664 172.558 224.587 182.868 224.432 190.367C224.427 190.597 224.236 190.781 224.005 190.775C223.774 190.771 223.59 190.58 223.595 190.349C223.749 182.932 223.842 172.733 221.579 165.575C220.764 162.994 219.36 160.691 218.08 158.325C217.049 156.417 216.681 154.434 215.883 152.461C215.76 152.157 215.592 151.794 215.36 151.496C215.173 151.256 214.947 151.054 214.649 151.015C214.405 150.983 214.245 151.135 214.124 151.32C213.94 151.598 213.837 151.961 213.77 152.243C213.331 154.082 213.153 155.974 213.016 157.856C212.781 161.079 212.47 164.882 213.784 167.923L213.82 167.903C214.299 167.644 214.821 167.537 215.358 167.693C216.288 167.96 216.509 168.846 216.276 169.543C216.113 170.033 215.724 170.407 215.243 170.457C214.951 170.488 214.609 170.405 214.253 170.11C214.038 169.933 213.845 169.72 213.685 169.491C213.619 169.396 213.555 169.298 213.495 169.198C213.279 169.412 213.088 169.64 212.929 169.843C212.742 170.081 212.571 170.336 212.43 170.605C212.392 170.677 212.368 170.854 212.34 170.939C212.305 171.044 212.254 171.113 212.222 171.147C212.068 171.308 211.901 171.311 211.753 171.252C211.686 171.225 211.556 171.164 211.491 170.959C211.446 170.814 211.483 170.662 211.577 170.557C211.608 170.444 211.655 170.281 211.689 170.216C211.853 169.903 212.053 169.604 212.271 169.326C212.495 169.042 212.775 168.716 213.094 168.429ZM214.156 168.673C214.223 168.79 214.295 168.902 214.371 169.012C214.488 169.18 214.629 169.335 214.787 169.466C214.923 169.579 215.044 169.637 215.156 169.625C215.322 169.608 215.426 169.447 215.483 169.279C215.58 168.988 215.513 168.608 215.126 168.496C214.784 168.397 214.457 168.496 214.156 168.673Z" fill="black"/>
<path d="M227.276 187.475H204.902V205.861H227.276V187.475Z" fill="#90CDD6"/>
<path fill-rule="evenodd" clip-rule="evenodd" d="M415.198 86.8546L408.59 133.454L461.498 140.728L466.963 94.4945C466.963 94.4945 415.25 87.5903 415.198 86.8546Z" fill="white"/>
<path fill-rule="evenodd" clip-rule="evenodd" d="M460.645 138.347C460.374 138.115 460.089 137.906 459.768 137.769C458.802 137.354 457.768 137.525 456.863 138.014C456.572 138.172 456.288 138.347 456.017 138.536C455.966 138.573 455.846 138.638 455.746 138.69C455.594 138.934 455.286 139.046 455.004 138.945C454.747 138.853 454.648 138.689 454.598 138.563C454.533 138.404 454.527 138.232 454.608 138.049C454.647 137.963 454.726 137.846 454.869 137.743C454.973 137.669 455.199 137.577 455.297 137.509C455.607 137.291 455.932 137.091 456.266 136.911C457.508 136.239 458.934 136.046 460.262 136.614C460.458 136.699 460.645 136.803 460.823 136.92L460.645 138.347ZM452.324 136.999C452.733 136.999 453.066 137.331 453.066 137.741C453.066 138.151 452.733 138.484 452.324 138.484C451.914 138.484 451.581 138.151 451.581 137.741C451.581 137.331 451.914 136.999 452.324 136.999ZM440.985 137.311C441.057 137.204 441.233 137.035 441.299 136.937C441.51 136.622 441.743 136.319 441.988 136.03C442.904 134.955 444.165 134.262 445.609 134.313C446.411 134.343 447.184 134.689 447.953 134.97C448.521 135.177 449.087 135.359 449.682 135.142C450.564 134.818 451.16 133.987 451.841 133.334C452.739 132.475 453.733 131.857 455.235 132.239C455.571 132.323 455.773 132.665 455.689 133.001C455.603 133.337 455.262 133.54 454.926 133.454C453.936 133.203 453.3 133.674 452.709 134.24C451.903 135.011 451.154 135.938 450.114 136.319C449.224 136.645 448.372 136.459 447.523 136.149C446.877 135.912 446.237 135.592 445.564 135.568C444.513 135.531 443.61 136.063 442.943 136.844C442.762 137.056 442.591 137.278 442.431 137.507L440.985 137.311ZM431.841 133.803C432.251 133.803 432.584 134.137 432.584 134.547C432.584 134.955 432.251 135.288 431.841 135.288C431.431 135.288 431.099 134.955 431.099 134.547C431.099 134.137 431.431 133.803 431.841 133.803ZM410.585 124.973C417.031 124.664 423.443 124.572 429.687 125.514C429.915 125.548 430.072 125.762 430.038 125.99C430.004 126.218 429.791 126.376 429.562 126.341C424.212 125.534 418.737 125.495 413.223 125.698C414.074 126.134 414.777 126.805 415.197 127.717C415.534 128.447 415.574 129.293 415.67 130.107C415.74 130.707 415.833 131.293 416.296 131.726C416.981 132.367 417.992 132.524 418.883 132.839C419.832 133.175 420.67 133.638 421.132 134.607L419.203 134.345C418.975 134.214 418.724 134.114 418.465 134.023C417.414 133.65 416.248 133.399 415.439 132.643C414.746 131.996 414.529 131.151 414.423 130.254C414.343 129.571 414.34 128.855 414.058 128.243C413.618 127.289 412.735 126.722 411.737 126.48C411.416 126.401 411.087 126.341 410.759 126.3C410.696 126.292 410.564 126.26 410.456 126.232C410.386 126.252 410.313 126.259 410.242 126.254L410.3 125.825C410.06 125.836 409.82 125.849 409.58 125.861C409.349 125.873 409.153 125.695 409.141 125.465C409.129 125.234 409.306 125.037 409.538 125.025C409.829 125.01 410.122 124.996 410.414 124.982L410.42 124.94C410.426 124.941 410.432 124.942 410.438 124.942C410.479 124.947 410.531 124.959 410.585 124.973ZM459.485 132.72C459.895 132.72 460.227 133.052 460.227 133.462C460.227 133.872 459.895 134.205 459.485 134.205C459.075 134.205 458.742 133.872 458.742 133.462C458.742 133.052 459.075 132.72 459.485 132.72ZM446.048 131.82C446.458 131.82 446.79 132.153 446.79 132.563C446.79 132.973 446.458 133.305 446.048 133.305C445.638 133.305 445.305 132.973 445.305 132.563C445.305 132.153 445.638 131.82 446.048 131.82ZM411.652 131.469C412.062 131.469 412.395 131.801 412.395 132.211C412.395 132.621 412.062 132.954 411.652 132.954C411.242 132.954 410.91 132.621 410.91 132.211C410.91 131.801 411.242 131.469 411.652 131.469ZM445.872 127.376C452.218 128.762 457.322 130.727 462.049 132.868C462.259 132.963 462.507 132.87 462.602 132.66C462.697 132.45 462.604 132.202 462.394 132.107C457.619 129.943 452.463 127.959 446.051 126.558C445.825 126.509 445.602 126.652 445.553 126.878C445.504 127.103 445.646 127.326 445.872 127.376ZM422.951 132.217C422.881 132.496 422.625 132.7 422.325 132.69C422.052 132.683 421.908 132.558 421.82 132.454C421.71 132.323 421.649 132.161 421.67 131.963C421.681 131.868 421.718 131.732 421.823 131.59C421.899 131.488 422.086 131.33 422.157 131.235C422.385 130.931 422.631 130.64 422.892 130.365C423.863 129.339 425.158 128.713 426.597 128.84C427.397 128.91 428.151 129.296 428.905 129.618C429.46 129.854 430.015 130.065 430.622 129.879C431.518 129.602 432.157 128.803 432.872 128.186C433.813 127.376 434.84 126.81 436.318 127.27C436.65 127.372 436.835 127.724 436.731 128.055C436.629 128.386 436.277 128.571 435.946 128.468C434.97 128.165 434.311 128.603 433.691 129.137C432.846 129.865 432.051 130.752 430.991 131.078C430.086 131.357 429.244 131.126 428.412 130.772C427.78 130.503 427.157 130.149 426.487 130.09C425.439 129.997 424.51 130.482 423.803 131.227C423.576 131.468 423.359 131.722 423.161 131.987C423.123 132.037 423.03 132.136 422.951 132.217ZM439.058 122.364C438.78 122.439 438.477 122.314 438.339 122.048C438.212 121.806 438.251 121.618 438.299 121.492C438.36 121.331 438.471 121.2 438.656 121.122C438.742 121.085 438.879 121.051 439.054 121.074C439.182 121.09 439.411 121.175 439.528 121.191C439.903 121.241 440.279 121.315 440.646 121.408C442.014 121.756 443.193 122.581 443.784 123.899C444.112 124.632 444.143 125.478 444.23 126.293C444.294 126.894 444.381 127.482 444.84 127.92C445.519 128.568 446.528 128.735 447.415 129.059C448.581 129.485 449.575 130.105 449.895 131.621C449.967 131.959 449.751 132.293 449.412 132.364C449.073 132.436 448.74 132.219 448.668 131.88C448.456 130.88 447.754 130.519 446.985 130.238C445.937 129.856 444.774 129.592 443.973 128.827C443.287 128.172 443.079 127.325 442.983 126.427C442.91 125.743 442.914 125.027 442.639 124.413C442.209 123.453 441.333 122.878 440.337 122.625C440.016 122.543 439.689 122.479 439.36 122.435C439.299 122.426 439.166 122.393 439.058 122.364ZM419.957 126.836C420.367 126.836 420.701 127.169 420.701 127.578C420.701 127.988 420.367 128.321 419.957 128.321C419.549 128.321 419.215 127.988 419.215 127.578C419.215 127.169 419.549 126.836 419.957 126.836Z" fill="black"/>
<path fill-rule="evenodd" clip-rule="evenodd" d="M428.134 125.293C428.134 125.293 432.415 134.125 435.989 134.652C435.989 134.652 438.87 135.922 450.626 127.666L445.917 126.481L447.576 117.938C447.576 117.938 453.36 116.452 452.072 112.845C451.826 112.156 450.511 110.778 448.741 112.35C448.741 112.35 449.049 110.687 449.417 108.707C449.731 107.019 449.333 105.275 448.318 103.889C447.303 102.504 445.76 101.599 444.055 101.389C442.663 101.218 441.177 101.035 439.733 100.857C435.174 100.297 431.024 103.537 430.462 108.094C429.868 112.919 429.176 118.529 428.874 120.982C428.755 121.948 428.982 122.925 429.514 123.739C429.995 124.461 430.661 125.262 431.48 125.668L428.134 125.293Z" fill="#4B0000"/>
<path fill-rule="evenodd" clip-rule="evenodd" d="M430.624 106.993C430.624 106.993 434.32 110.235 439.803 105.959C439.803 105.959 439.787 109.907 443.43 112.427C443.43 112.427 446.824 116.638 442.849 118.724C442.849 118.724 440.362 120.925 436.963 117.701C436.963 117.701 433.329 114.74 430.624 117.701C430.624 117.701 429.584 118.246 429.431 116.495C429.431 116.495 429.132 118.09 428.815 119.787C428.523 121.347 428.876 122.957 429.792 124.253C430.708 125.547 432.109 126.416 433.677 126.661C434.648 126.807 435.744 126.835 436.963 126.674C438.067 126.527 444.645 125.967 447.751 117.265C447.751 117.265 448.599 113 449.402 108.959C449.764 107.137 449.343 105.248 448.243 103.752C447.143 102.256 445.464 101.291 443.618 101.094C442.072 100.929 440.544 100.766 439.343 100.637C436.806 100.366 434.295 101.342 432.606 103.254C431.786 104.201 431.048 105.423 430.624 106.993Z" fill="#3C6DC0"/>
<path fill-rule="evenodd" clip-rule="evenodd" d="M440.204 138.021L432.399 137.359L433.578 182.587L441.292 182.251L440.204 138.021Z" fill="#3C6DC0"/>
<path fill-rule="evenodd" clip-rule="evenodd" d="M409.332 133.108L460.974 139.99C461.318 140.035 461.56 140.351 461.514 140.695C461.468 141.038 461.152 141.28 460.809 141.234L408.545 134.269C408.38 134.247 408.23 134.16 408.129 134.029C408.028 133.896 407.983 133.729 408.006 133.564L414.276 86.5446C414.321 86.2013 414.637 85.9599 414.981 86.0056C415.324 86.0514 415.565 86.3672 415.519 86.7105L409.332 133.108Z" fill="#3C6DC0"/>
<path fill-rule="evenodd" clip-rule="evenodd" d="M466.137 94.7712L414.807 87.2483C414.464 87.1981 414.227 86.8792 414.277 86.5366C414.327 86.1939 414.646 85.9565 414.989 86.0067L466.929 93.6188C467.268 93.6684 467.504 93.9802 467.46 94.3195L461.514 140.692C461.47 141.035 461.155 141.278 460.812 141.234C460.468 141.19 460.225 140.875 460.269 140.532L466.137 94.7712Z" fill="#3C6DC0"/>
<path fill-rule="evenodd" clip-rule="evenodd" d="M423.83 192.05C423.83 192.05 423.477 158.797 428.719 154.881C428.719 154.881 432.394 150.73 434.16 148.548C434.16 148.548 437.843 145.907 437.155 150.915C437.155 150.915 436.805 155.729 434.16 158.62C434.16 158.62 436.187 160.407 433.525 168.27L433.967 182.034L441.197 181.937L440.697 173.458C440.697 173.458 438.723 172.044 440.697 169.802C440.697 169.802 438.295 168.155 440.697 166.273C440.697 166.273 437.618 165.168 439.747 162.448C439.747 162.448 435.557 160.593 439.747 157.17C439.747 157.17 442.752 154.202 444.048 155.75C444.589 156.395 445.008 157.517 443.68 158.977C443.68 158.977 446.4 159.391 444.888 162.922C445.38 162.674 447.599 164.326 445.269 166.796C445.269 166.796 449.149 167.77 444.048 172.147L444.789 192.156L423.83 192.05Z" fill="#B74D2F"/>
<path fill-rule="evenodd" clip-rule="evenodd" d="M444.539 159.361C444.304 159.175 444.02 159.054 443.693 158.987L439.756 162.447C439.235 163.114 439.026 163.643 439.016 164.137L444.539 159.361Z" fill="#DC7F64"/>
<path fill-rule="evenodd" clip-rule="evenodd" d="M445.687 163.281C445.496 163.064 445.249 162.91 444.894 162.875C444.894 162.875 444.79 162.971 444.734 163.021C443.861 163.812 442.561 164.938 441.344 165.793C441.119 165.95 440.723 166.224 440.723 166.224C440.232 166.681 439.82 167.106 439.675 167.669C439.675 167.669 441.024 167.04 441.824 166.478C443.197 165.514 444.673 164.213 445.553 163.406C445.599 163.363 445.687 163.281 445.687 163.281Z" fill="#DC7F64"/>
<path fill-rule="evenodd" clip-rule="evenodd" d="M440.74 174.271L440.688 173.488C440.688 173.488 440.823 173.479 440.881 173.474C441.283 173.431 441.83 173.345 442.355 173.17C442.818 173.016 443.365 172.724 443.947 172.269C443.985 172.241 444.058 172.181 444.058 172.181L444.102 173.202C444.102 173.202 443.977 173.285 443.916 173.325C443.423 173.643 442.953 173.857 442.513 173.991C441.943 174.166 441.383 174.232 440.919 174.25C440.855 174.253 440.74 174.271 440.74 174.271Z" fill="#DC7F64"/>
<path fill-rule="evenodd" clip-rule="evenodd" d="M446.049 167.201C445.817 167.028 445.547 166.886 445.224 166.787C445.224 166.787 445.092 166.888 445.022 166.942C443.978 167.739 442.309 168.955 440.878 169.727C440.834 169.751 440.747 169.797 440.747 169.797C440.422 170.033 440.077 170.606 439.916 171.093C439.916 171.093 440.037 171.04 440.122 171.006C441.929 170.291 444.638 168.288 445.89 167.324C445.946 167.28 446.049 167.201 446.049 167.201Z" fill="#DC7F64"/>
<path fill-rule="evenodd" clip-rule="evenodd" d="M433.52 168.209L433.616 171.247C433.388 171.919 433.038 172.355 432.61 172.926C432.407 173.196 432.103 173.515 431.765 173.669C431.469 173.804 431.149 173.829 430.824 173.674C430.54 173.538 430.358 173.353 430.249 173.147C430.089 172.849 430.079 172.492 430.193 172.123C430.418 171.387 431.164 170.595 431.617 170.345C432.043 170.11 432.519 169.986 433.014 169.947C433.086 169.698 433.155 169.449 433.229 169.205C433.293 168.989 433.446 168.421 433.52 168.209ZM432.745 170.817C432.492 170.868 432.248 170.952 432.022 171.077C431.693 171.259 431.156 171.835 430.992 172.368C430.95 172.507 430.927 172.641 430.987 172.754C431.023 172.822 431.091 172.874 431.185 172.919C431.298 172.973 431.405 172.923 431.502 172.862C431.679 172.75 431.83 172.572 431.941 172.424C432.305 171.938 432.549 171.388 432.745 170.817Z" fill="#DC7F64"/>
<path fill-rule="evenodd" clip-rule="evenodd" d="M423.248 206.776L423.076 192.067L445.194 192.161L445.531 206.776H423.248Z" fill="#EF7B58"/>
<path fill-rule="evenodd" clip-rule="evenodd" d="M30.0287 84.541L89.2522 70.3763L98.5489 120.683L41.0377 134.434L30.0287 84.541Z" fill="white"/>
<path fill-rule="evenodd" clip-rule="evenodd" d="M38.9765 123.192C38.9765 123.192 45.7361 116.915 52.1477 113.56C52.1477 113.56 77.4474 104.899 97.8167 115.108L98.8618 120.383L41.667 133.955L38.9765 123.192Z" fill="#FFD57D"/>
<path fill-rule="evenodd" clip-rule="evenodd" d="M44.1152 128.591L45.5551 131.087C45.7745 131.466 45.644 131.953 45.2638 132.173C44.8836 132.392 44.3967 132.262 44.1773 131.881L42.2706 128.577C42.1541 128.375 42.1321 128.132 42.2103 127.912C42.2884 127.694 42.459 127.519 42.6768 127.437L46.2473 126.078C46.6575 125.923 47.1174 126.128 47.2734 126.539C47.4295 126.949 47.2229 127.409 46.8126 127.565L44.1152 128.591ZM58.1534 129.454C58.0689 129.314 58.0268 129.145 58.0433 128.97C58.0842 128.533 58.4723 128.211 58.9093 128.252L61.7826 128.521L61.5908 125.647C61.5616 125.208 61.8934 124.829 62.3314 124.8C62.7696 124.771 63.1488 125.102 63.1781 125.541L63.3571 128.223L58.1534 129.454ZM52.2754 126.542L54.8999 127.731C55.2997 127.912 55.4773 128.384 55.296 128.783C55.115 129.184 54.6432 129.361 54.2434 129.18L50.7682 127.605C50.556 127.509 50.3965 127.324 50.3321 127.101C50.2678 126.877 50.3048 126.636 50.4336 126.441L52.5442 123.258C52.7867 122.891 53.2807 122.792 53.6465 123.034C54.0124 123.277 54.1126 123.77 53.8701 124.136L52.2754 126.542ZM70.3719 122.872L67.8067 121.561C67.4158 121.361 67.2608 120.881 67.4607 120.49C67.6605 120.099 68.1401 119.945 68.531 120.144L71.9278 121.882C72.1353 121.988 72.2859 122.179 72.3396 122.406C72.3934 122.634 72.3449 122.872 72.2071 123.061L69.9485 126.141C69.689 126.495 69.1908 126.571 68.8367 126.312C68.4828 126.053 68.406 125.554 68.6656 125.2L70.3719 122.872ZM78.3794 124.67L77.2384 122.249C77.1392 122.039 77.1373 121.795 77.2334 121.583C77.3295 121.369 77.5139 121.21 77.7378 121.145L81.4085 120.089C81.8303 119.967 82.2713 120.211 82.3929 120.632C82.5143 121.055 82.2705 121.495 81.8487 121.617L79.0756 122.415L79.9617 124.296L78.3794 124.67ZM41.4566 121.003L42.8752 121.905L44.0141 119.257C44.1876 118.854 44.656 118.667 45.0591 118.841C45.4624 119.015 45.6489 119.484 45.4753 119.887L43.9673 123.391C43.8752 123.605 43.6938 123.769 43.4711 123.837C43.2484 123.905 43.0068 123.873 42.81 123.749L40.1972 122.088C40.6192 121.715 41.039 121.353 41.4566 121.003ZM59.7191 120.667L62.0874 119.025C62.4482 118.775 62.9441 118.865 63.1942 119.226C63.4442 119.587 63.3543 120.083 62.9935 120.332L59.8574 122.507C59.6659 122.639 59.4258 122.68 59.2004 122.621C58.9752 122.561 58.7875 122.406 58.6869 122.195L57.039 118.75C56.8497 118.353 57.0174 117.877 57.4135 117.689C57.8094 117.5 58.2848 117.667 58.4741 118.063L59.7191 120.667ZM49.562 115.139C49.7513 115.127 49.9452 115.184 50.1047 115.311L53.0828 117.696C53.2646 117.842 53.3735 118.06 53.3805 118.294C53.3875 118.526 53.2921 118.75 53.1192 118.906L50.2873 121.47C49.9617 121.764 49.4583 121.739 49.1638 121.414C48.8692 121.088 48.8943 120.586 49.2197 120.29L51.3593 118.355L49.1104 116.553C48.8026 116.307 48.7265 115.877 48.9132 115.544C49.1342 115.404 49.3504 115.269 49.562 115.139ZM88.5077 119.802L91.2408 118.891C91.6572 118.752 92.1081 118.978 92.247 119.394C92.3859 119.81 92.1607 120.261 91.7442 120.4L88.1251 121.608C87.904 121.681 87.6616 121.654 87.4621 121.533C87.2626 121.413 87.1259 121.211 87.0884 120.981L86.472 117.211C86.4012 116.778 86.6954 116.369 87.1286 116.299C87.5618 116.227 87.971 116.521 88.042 116.955L88.5077 119.802ZM74.1472 115.056L71.7041 116.585C71.3318 116.817 70.8407 116.704 70.608 116.332C70.3752 115.959 70.4886 115.469 70.8608 115.235L74.0959 113.212C74.2936 113.089 74.5354 113.059 74.7577 113.129C74.9798 113.199 75.16 113.364 75.2505 113.578L76.7338 117.099C76.9043 117.504 76.7142 117.97 76.3096 118.14C75.9051 118.311 75.4382 118.121 75.2678 117.717L74.1472 115.056ZM94.9254 113.833C95.744 114.151 96.3459 114.411 96.7023 114.573L96.8566 115.32C96.9038 115.548 96.8484 115.786 96.7052 115.97C96.5619 116.153 96.3453 116.265 96.1124 116.275L92.2963 116.442C91.8577 116.462 91.4861 116.121 91.4669 115.682C91.4478 115.243 91.7882 114.872 92.2267 114.852L95.1098 114.726L94.9254 113.833ZM82.7316 112.456L82.7874 115.336C82.7959 115.775 82.4466 116.138 82.0077 116.147C81.5688 116.155 81.2055 115.807 81.1971 115.368L81.1231 111.553C81.1186 111.319 81.2165 111.097 81.391 110.942C81.5654 110.788 81.799 110.718 82.0298 110.749L85.8118 111.285C86.2465 111.346 86.5496 111.749 86.4881 112.184C86.4265 112.619 86.0237 112.922 85.589 112.86L82.7316 112.456Z" fill="#DC7F64"/>
<path fill-rule="evenodd" clip-rule="evenodd" d="M55.668 100.158C55.6503 100.099 55.5285 99.6977 55.4983 99.5824C55.3307 98.9434 55.1884 98.2978 55.0834 97.6456C54.7795 95.7584 54.786 93.5957 55.4804 91.7875C56.3854 89.4309 58.5134 88.285 60.7352 87.4055C63.2613 86.4054 65.9346 85.6688 68.0817 83.9279C69.6627 82.6462 70.5404 80.8315 71.9786 79.4388C72.8412 78.6035 74.076 78.0639 75.2298 78.695C76.4835 79.3809 76.979 80.5591 76.9779 81.8564C76.9766 83.4241 76.2155 85.1656 75.3043 86.2697C75.3624 86.8479 75.2863 87.5652 75.1279 88.3109C74.8533 89.6032 74.3479 90.99 74.0322 91.7994C73.9259 92.0721 73.6182 92.2072 73.3456 92.1009C73.0729 91.9946 72.9379 91.6869 73.0442 91.4142C73.3449 90.6428 73.8289 89.3221 74.0906 88.0906C74.1498 87.8113 74.1991 87.5372 74.2308 87.2773C73.7517 87.6327 73.2009 87.9234 72.6362 87.9698C72.1467 88.01 71.7809 87.8879 71.5145 87.6894C71.1119 87.3894 70.9135 86.8878 70.9285 86.3265C70.9501 85.518 71.4316 84.6096 72.1183 84.2474C73.1817 83.6867 74.2872 84.1861 74.8772 85.0671C75.4705 84.1587 75.9165 82.9563 75.9174 81.8555C75.9182 80.9466 75.5991 80.1059 74.7208 79.6253C73.9994 79.2307 73.2557 79.6785 72.7164 80.2007C71.2558 81.6151 70.3552 83.4499 68.7497 84.7517C66.5179 86.5612 63.7513 87.3521 61.1255 88.3915C59.1792 89.1621 57.2632 90.1031 56.4705 92.1677C55.8412 93.806 55.855 95.767 56.1304 97.4772C56.2299 98.0963 56.3653 98.7074 56.5241 99.3132C56.5589 99.4471 56.6672 99.7176 56.7078 99.9363C56.7432 100.127 56.7329 100.3 56.6924 100.423C56.6017 100.701 56.3022 100.854 56.0239 100.762C55.7666 100.679 55.6171 100.416 55.668 100.158ZM74.1525 85.9551C73.9128 85.3325 73.2683 84.84 72.613 85.1854C72.2329 85.3859 72.0006 85.9075 71.9886 86.3549C71.9835 86.5477 72.0097 86.7359 72.148 86.8389C72.242 86.9089 72.3765 86.9271 72.5494 86.9129C73.163 86.8625 73.7243 86.3639 74.1525 85.9551Z" fill="black"/>
<path fill-rule="evenodd" clip-rule="evenodd" d="M52.1475 113.56L58.157 110.649L56.871 104.12C56.871 104.12 53.6384 101.804 56.3033 100.156C56.3033 100.156 56.6033 99.4246 58.7885 100.884C58.7885 100.884 61.7167 101.995 61.7673 97.8802L61.6585 93.1408C61.6585 93.1408 69.9003 95.6875 74.7433 89.8339C74.7433 89.8339 76.4157 95.886 77.6288 100.276C78.3271 102.804 76.9889 105.447 74.5389 106.381C73.0752 106.938 71.8037 107.423 71.8037 107.423L72.1612 110.116L75.8063 110.134C75.8063 110.134 73.446 118.181 67.0172 119.385C60.7913 120.551 56.1401 115.987 52.1475 113.56Z" fill="#AB494A"/>
<path fill-rule="evenodd" clip-rule="evenodd" d="M58.1527 110.622L57.1972 111.102L57.6405 113.076C57.6988 113.362 57.9791 113.548 58.2659 113.49C58.5527 113.431 58.7381 113.15 58.6797 112.864L58.1527 110.622Z" fill="black"/>
<path fill-rule="evenodd" clip-rule="evenodd" d="M56.678 103.999C57.1979 104.25 57.8435 104.528 58.4441 104.691C58.7265 104.768 58.8934 105.06 58.8167 105.342C58.7399 105.625 58.4483 105.792 58.1659 105.715C57.8198 105.621 57.4599 105.492 57.1137 105.352L56.871 104.12C56.871 104.12 56.7974 104.076 56.678 103.999Z" fill="black"/>
<path fill-rule="evenodd" clip-rule="evenodd" d="M71.8037 107.424C70.0281 107.905 68.3613 108.013 66.7472 107.941C66.6262 107.935 66.5208 108.023 66.5038 108.143C66.4868 108.263 66.5637 108.377 66.6814 108.405C68.6199 108.944 71.1556 109.604 72.1 109.656L71.8037 107.424Z" fill="black"/>
<path d="M73.5511 126.951L64.2379 129.813L78.4508 185.46L87.764 182.598L73.5511 126.951Z" fill="#3C6DC0"/>
<path d="M88.988 70L30 84.2044L41.4486 134.099" stroke="#3C6DC0" stroke-width="1.2549" stroke-miterlimit="2.28659" stroke-linecap="round" stroke-linejoin="round"/>
<path d="M41.4485 134.099L99 120.602L88.988 70" stroke="#3C6DC0" stroke-width="1.2549" stroke-miterlimit="2.28659" stroke-linecap="round" stroke-linejoin="round"/>
<path fill-rule="evenodd" clip-rule="evenodd" d="M62.4875 195.406C62.4875 195.406 55.503 155.814 65.7003 151.576C66.3832 151.293 67.1558 150.826 70.0438 150.04L71.1111 153.533L79.1486 152.095L78.1897 148.769C78.1897 148.769 84.4022 149.246 85.4589 151.139C85.4589 151.139 87.1284 153.762 85.2355 155.724C85.2355 155.724 88.8124 157.982 86.199 161.784C86.5657 161.931 89.3534 163.596 86.3731 168.299C86.3731 168.299 88.5728 171.571 84.1244 175.064C79.676 178.556 78.4639 179.077 78.4639 179.077L80.48 185.235L83.4259 184.395L84.0822 193.548C84.0822 193.548 62.2196 193.009 62.4875 195.406Z" fill="#EF977D"/>
<path fill-rule="evenodd" clip-rule="evenodd" d="M78.5798 179.06C78.5798 179.06 75.9122 180.358 74.3481 181.12C74.1242 181.228 73.9849 181.459 73.9924 181.707C74 181.956 74.1528 182.178 74.383 182.273C75.7859 182.858 77.4822 183.022 79.5797 182.722L78.5798 179.06ZM77.8619 174.667C77.8619 174.667 82.3105 172.809 85.8165 170.562C86.086 170.39 86.3501 170.215 86.6064 170.037C86.6366 170.016 86.6668 169.996 86.6968 169.975C86.7413 169.943 86.8866 169.856 86.8866 169.856C86.8246 169.265 86.6183 168.753 86.3601 168.269C86.3601 168.269 86.2663 168.334 86.2038 168.379C86.0941 168.459 85.9238 168.582 85.8165 168.656C85.0872 169.163 84.2823 169.657 83.4707 170.124C80.4215 171.875 77.2494 173.198 77.2494 173.198C76.8443 173.367 76.6526 173.834 76.8216 174.238C76.9907 174.644 77.4568 174.835 77.8619 174.667ZM77.346 168.463C77.346 168.463 81.7944 166.605 85.3005 164.36C85.8888 163.982 86.4502 163.594 86.9627 163.2C87.0998 163.094 87.3333 162.925 87.3333 162.925C87.0992 162.431 86.7349 162.048 86.2279 161.784C86.2279 161.784 86.0134 161.934 85.8863 162.029C85.0156 162.684 83.9905 163.324 82.9546 163.92C79.9055 165.671 76.7334 166.995 76.7334 166.995C76.3283 167.163 76.1366 167.63 76.3057 168.034C76.4747 168.44 76.9409 168.632 77.346 168.463ZM76.0745 162.481C76.0745 162.481 80.5649 160.729 84.1222 158.564C85.0616 157.993 86.4424 156.896 86.4424 156.896C86.0963 156.313 85.7069 156.031 85.2759 155.733C85.2759 155.733 83.058 157.379 81.7873 158.071C78.6983 159.751 75.4962 160.999 75.4962 160.999C75.0873 161.16 74.8848 161.621 75.0443 162.029C75.2039 162.439 75.6655 162.642 76.0745 162.481ZM69.5574 154.744C69.5574 154.744 73.6654 154.632 77.19 153.873C78.7789 153.529 80.2499 153.047 81.2251 152.409C81.5923 152.169 81.6954 151.675 81.4551 151.308C81.2146 150.94 80.7212 150.837 80.3539 151.078C79.2141 151.825 77.2862 152.283 75.3912 152.591C72.4221 153.075 69.5146 153.154 69.5146 153.154C69.0757 153.166 68.729 153.532 68.7409 153.971C68.7527 154.41 69.1186 154.756 69.5574 154.744Z" fill="#AF3636"/>
<path fill-rule="evenodd" clip-rule="evenodd" d="M59.749 206.902H88.1626C88.1626 206.902 94.0337 200.115 87.0672 193.329H60.6728C58.7338 194.538 54.5706 201.297 59.749 206.902Z" fill="#D25C52"/>
<path fill-rule="evenodd" clip-rule="evenodd" d="M61.2105 206.902L60.1183 205.194C59.6377 204.442 59.8576 203.442 60.6092 202.962C61.3608 202.481 62.3614 202.701 62.8421 203.452L65.0486 206.902H61.2105ZM73.6536 206.902C73.6843 206.818 73.7224 206.737 73.768 206.656L75.8142 203.078C76.257 202.304 77.2455 202.034 78.0201 202.477C78.7946 202.921 79.0639 203.908 78.621 204.684L77.3522 206.902H73.6536ZM86.9417 203.174L83.4058 201.054C82.6406 200.595 81.6469 200.845 81.1882 201.61C80.7295 202.376 80.9785 203.369 81.7438 203.827L85.2795 205.947C86.0449 206.406 87.0386 206.157 87.4973 205.392C87.956 204.625 87.707 203.633 86.9417 203.174ZM69.8624 203.227L69.9889 199.105C70.0163 198.215 69.3145 197.468 68.4226 197.44C67.5309 197.413 66.7845 198.115 66.7572 199.007L66.6306 203.127C66.6033 204.02 67.3051 204.765 68.1969 204.792C69.0887 204.82 69.8349 204.118 69.8624 203.227ZM58.1073 196.804L61.338 195.912C62.1981 195.675 63.0891 196.181 63.3264 197.041C63.5636 197.9 63.0579 198.793 62.1978 199.03L58.2241 200.125C57.9 200.215 57.5715 200.199 57.2752 200.098C57.3663 198.905 57.6838 197.784 58.1073 196.804ZM88.1271 194.475C88.9271 195.445 89.4847 196.408 89.8555 197.344C89.7475 197.397 89.6317 197.439 89.5095 197.47L85.5008 198.429C84.633 198.638 83.7598 198.102 83.5518 197.235C83.3439 196.367 83.8795 195.493 84.7471 195.285L88.1271 194.475ZM78.3462 193.328L79.0668 196.084C79.2925 196.949 78.7749 197.833 77.9116 198.058C77.0485 198.284 76.1644 197.767 75.9387 196.902L75.0043 193.328H78.3462ZM71.9219 193.328C72.1234 193.729 72.1591 194.21 71.9798 194.657C71.6486 195.485 70.707 195.889 69.8784 195.558L66.0511 194.027C65.6988 193.886 65.4234 193.635 65.2487 193.328H71.9219Z" fill="white"/>
<path fill-rule="evenodd" clip-rule="evenodd" d="M696.715 9.9707L686.172 63.4777L759.999 76.9947L769.163 23.2023L696.715 9.9707Z" fill="white"/>
<path fill-rule="evenodd" clip-rule="evenodd" d="M760.521 69.6896C760.521 69.6896 719.449 49.0968 687.843 52.9888L685.924 63.1431L759.159 77.0407L760.521 69.6896Z" fill="#90CDD6"/>
<path fill-rule="evenodd" clip-rule="evenodd" d="M750.23 65.1393C750.814 65.3972 751.399 65.6589 751.975 65.92C752.053 66.8952 752.229 67.8658 752.468 68.8066C753.389 72.4124 755.716 75.1324 758.738 76.8962L754.945 76.1892C752.995 74.3587 751.534 72.0256 750.82 69.2275C750.481 67.8995 750.263 66.5174 750.23 65.1393ZM742.415 62.0885C742.9 62.2265 743.444 62.4045 744.034 62.6138C743.971 62.791 743.907 62.9676 743.842 63.1436C743.332 64.5213 742.734 65.847 741.971 67.1051C740.62 69.332 738.737 71.2476 736.575 72.7641L734.132 72.3087C736.708 70.8162 738.989 68.7408 740.515 66.2228C741.222 65.0578 741.773 63.8291 742.244 62.5534C742.303 62.3988 742.359 62.2439 742.415 62.0885ZM686.263 62.3855C686.334 62.3209 686.423 62.2618 686.536 62.2112C686.59 62.187 686.646 62.169 686.701 62.1567C686.796 62.1235 686.953 62.0687 687.017 62.0497C687.324 61.957 687.633 61.8763 687.945 61.8042C688.78 61.6113 689.623 61.4459 690.468 61.3025C692.882 60.8927 695.322 60.6878 697.772 60.7259C705.576 60.8474 711.295 62.8924 715.706 68.8733L713.119 68.3907C709.212 64.0396 704.254 62.529 697.745 62.4277C695.4 62.3913 693.064 62.5883 690.753 62.9806C689.941 63.1184 689.131 63.2772 688.328 63.4626C688.097 63.5159 687.867 63.5745 687.64 63.6403L687.484 63.6113C687.609 63.5053 687.671 63.385 687.69 63.2604C687.653 63.3687 687.594 63.4697 687.518 63.5561C687.501 63.5741 687.484 63.5914 687.467 63.6081L686.084 63.3504L686.263 62.3855ZM737.035 60.8221C737.291 61.0803 737.362 61.4858 737.181 61.8235C736.352 63.3745 735.402 64.7999 734.016 65.9192C729.265 69.7581 721.724 69.7811 717.553 65.0529C716.151 63.463 715.069 61.4692 714.414 59.4567C714.218 58.8535 714.041 58.2402 713.905 57.6202C713.88 57.5118 713.892 57.308 713.906 57.1562C713.821 56.95 713.815 56.7107 713.912 56.4903C714.1 56.0601 714.602 55.8638 715.034 56.0523C715.351 56.1917 715.524 56.4257 715.598 56.7304C715.629 56.8669 715.6 57.2005 715.585 57.3349C715.707 57.8734 715.862 58.4058 716.032 58.9302C716.617 60.7261 717.578 62.5082 718.829 63.9271C722.405 67.9804 728.873 67.8861 732.947 64.5949C734.151 63.6222 734.959 62.3695 735.68 61.0211C735.786 60.8213 735.962 60.6814 736.162 60.615L737.035 60.8221ZM691.762 52.6463C692.353 52.8786 692.936 53.0739 693.451 53.2414C697.833 54.6696 702.231 54.5214 706.576 53.593L710.149 54.441C704.475 56.0893 698.685 56.7376 692.923 54.8598C691.614 54.4332 689.95 53.804 688.628 52.9298C689.389 52.777 690.492 52.6892 691.762 52.6463ZM688.444 50.5338C688.623 50.7637 688.837 50.9778 689.077 51.1771C688.697 51.5759 688.373 51.9332 688.132 52.2302L688.075 52.5332C688.038 52.5036 688.002 52.4738 687.965 52.4437C688.014 52.3765 688.071 52.3051 688.132 52.2302L688.444 50.5338Z" fill="white"/>
<path fill-rule="evenodd" clip-rule="evenodd" d="M703.717 52.8318C703.717 52.8318 722.51 71.8666 741.406 61.7245C741.406 61.7245 735.022 59.6769 733.741 59.1846L734.284 53.8128C734.284 53.8128 735.219 53.4946 736.148 53.1786C737.432 52.7417 738.51 51.8462 739.173 50.6636C742.145 45.412 742.068 40.5943 741.956 35.9905C741.924 34.0233 741.049 32.1647 739.554 30.8859C736.964 28.6854 732.239 25.9036 725.367 26.5992C723.09 26.8158 720.997 27.9435 719.564 29.7263C718.048 31.6131 716.446 34.6106 716.167 39C716.167 39 714.541 36.673 712.485 38.8862C711.655 39.7793 711.784 43.3608 715.384 44.5534L714.069 54.2081L703.717 52.8318Z" fill="#482827"/>
<path fill-rule="evenodd" clip-rule="evenodd" d="M716.937 34.7252C716.851 35.0042 716.129 39.224 716.129 39.224C716.129 39.224 716.425 40.3871 718.102 40.6469C723.211 41.4397 721.038 34.4597 728.657 33.7211C732.148 33.3827 734.239 34.9073 737.986 35.8718C738.962 36.1233 742.474 36.9521 741.768 34.3253C741.676 33.9836 741.493 33.4184 740.98 32.5234C740.98 32.5234 736.242 25.3135 725.25 26.5964C723.031 26.8425 720.998 27.9546 719.594 29.6907C718.622 30.888 717.614 32.5425 716.937 34.7252Z" fill="#AB494A"/>
<path fill-rule="evenodd" clip-rule="evenodd" d="M734.439 53.7069C734.439 53.7069 730.103 54.0248 725.439 51.3949C725.169 51.2443 724.832 51.2997 724.625 51.5287C724.418 51.7575 724.396 52.0991 724.574 52.3521C726.419 54.9663 729.681 58.5806 733.742 58.901L734.439 53.7069Z" fill="black"/>
<path fill-rule="evenodd" clip-rule="evenodd" d="M715.177 45.8816C715.177 45.8816 715.666 45.7473 716.199 45.6003C716.38 45.551 716.506 45.3896 716.51 45.2033C716.514 45.0171 716.395 44.8501 716.219 44.7924C715.869 44.6788 715.557 44.5772 715.438 44.5384C715.425 44.5343 715.411 44.5358 715.4 44.5429C715.388 44.55 715.38 44.5618 715.378 44.5751C715.34 44.827 715.177 45.8816 715.177 45.8816Z" fill="black"/>
<path fill-rule="evenodd" clip-rule="evenodd" d="M758.477 76.0451L768.312 22.9899C768.397 22.5281 768.841 22.2225 769.303 22.3082C769.766 22.3937 770.071 22.8383 769.986 23.3001L759.994 77.1957C759.953 77.4183 759.826 77.6153 759.638 77.7431C759.453 77.8709 759.221 77.919 759 77.8767L685.765 63.9793C685.302 63.8917 684.999 63.4459 685.087 62.9845C685.175 62.523 685.62 62.2194 686.083 62.3071L758.477 76.0451Z" fill="#3C6DC0"/>
<path fill-rule="evenodd" clip-rule="evenodd" d="M696.862 9.85086L686.759 63.3012C686.672 63.7628 686.227 64.0666 685.764 63.9794C685.303 63.8921 685 63.4466 685.086 62.9851L695.349 8.69301C695.39 8.47018 695.52 8.27345 695.707 8.14636C695.895 8.01927 696.126 7.97232 696.349 8.01586L769.312 22.3097C769.773 22.4001 770.073 22.8476 769.982 23.3086C769.893 23.7694 769.445 24.0704 768.984 23.9801L696.862 9.85086Z" fill="#3C6DC0"/>
<path d="M726.306 71.3741L714.79 68.5637L698.505 151.073L710.02 153.884L726.306 71.3741Z" fill="#3C6DC0"/>
<path fill-rule="evenodd" clip-rule="evenodd" d="M687.405 206.848C678.8 196.348 689.218 186.867 689.218 186.867C679.668 176.856 689.148 170.255 689.148 170.255C681.187 161.31 690.485 154.94 690.485 154.94H712.958C712.958 154.94 722.256 161.31 714.295 170.255C714.295 170.255 723.775 176.856 714.225 186.867C714.225 186.867 724.643 196.348 716.039 206.848H687.405Z" fill="#EFDDB7"/>
<path fill-rule="evenodd" clip-rule="evenodd" d="M714.554 201.569L708.949 203.794C708.512 203.967 708.299 204.462 708.472 204.898C708.645 205.335 709.14 205.55 709.577 205.376L715.181 203.152C715.618 202.979 715.832 202.484 715.659 202.047C715.486 201.611 714.991 201.396 714.554 201.569ZM698.884 203.299L692.858 203.09C692.389 203.074 691.994 203.442 691.979 203.911C691.962 204.381 692.329 204.775 692.799 204.791L698.825 205.001C699.295 205.016 699.689 204.649 699.705 204.179C699.722 203.71 699.353 203.316 698.884 203.299ZM705.617 195.001L704.5 200.926C704.414 201.388 704.718 201.833 705.179 201.92C705.641 202.006 706.086 201.703 706.173 201.24L707.289 195.316C707.376 194.853 707.072 194.408 706.61 194.321C706.149 194.235 705.703 194.538 705.617 195.001ZM686.694 199.256L692.502 197.635C692.955 197.509 693.218 197.039 693.092 196.587C692.966 196.134 692.497 195.869 692.044 195.995L686.237 197.616C685.783 197.743 685.519 198.212 685.646 198.665C685.772 199.117 686.241 199.381 686.694 199.256ZM695.851 190.574L699.153 195.621C699.41 196.014 699.937 196.124 700.33 195.866C700.723 195.609 700.834 195.082 700.577 194.689L697.277 189.642C697.018 189.249 696.491 189.139 696.098 189.397C695.705 189.653 695.594 190.181 695.851 190.574ZM715.878 191.387L709.872 190.846C709.404 190.804 708.99 191.15 708.947 191.618C708.905 192.086 709.251 192.499 709.719 192.541L715.724 193.082C716.192 193.123 716.607 192.778 716.648 192.31C716.69 191.842 716.344 191.428 715.878 191.387ZM691.217 189.482L693.993 184.13C694.209 183.713 694.045 183.198 693.628 182.983C693.211 182.766 692.698 182.929 692.481 183.346L689.705 188.699C689.489 189.116 689.653 189.629 690.07 189.846C690.487 190.062 691 189.899 691.217 189.482ZM709.007 183.981L703.543 186.534C703.118 186.733 702.935 187.239 703.133 187.665C703.332 188.09 703.838 188.275 704.264 188.076L709.727 185.524C710.153 185.324 710.337 184.818 710.137 184.393C709.939 183.967 709.432 183.783 709.007 183.981ZM700.631 182.695L698.885 176.923C698.749 176.474 698.274 176.22 697.824 176.354C697.374 176.491 697.121 176.967 697.257 177.415L699.003 183.188C699.137 183.638 699.614 183.892 700.064 183.756C700.513 183.619 700.767 183.144 700.631 182.695ZM714.429 174.075L714.482 180.103C714.486 180.573 714.87 180.951 715.34 180.947C715.811 180.943 716.188 180.559 716.184 180.089L716.131 174.059C716.127 173.59 715.741 173.211 715.272 173.215C714.802 173.22 714.425 173.604 714.429 174.075ZM708.729 173.445L705.651 178.631C705.411 179.034 705.544 179.557 705.949 179.797C706.352 180.037 706.875 179.903 707.115 179.499L710.193 174.315C710.432 173.91 710.299 173.389 709.896 173.149C709.492 172.909 708.968 173.042 708.729 173.445ZM685.863 177.99L691.806 179.005C692.27 179.085 692.709 178.773 692.789 178.309C692.868 177.847 692.556 177.407 692.092 177.327L686.149 176.312C685.687 176.234 685.246 176.544 685.168 177.008C685.088 177.471 685.4 177.91 685.863 177.99ZM693.712 172.82L693.092 166.821C693.045 166.355 692.626 166.014 692.159 166.062C691.692 166.111 691.352 166.529 691.4 166.997L692.018 172.994C692.068 173.462 692.487 173.803 692.953 173.754C693.42 173.706 693.76 173.288 693.712 172.82ZM705.439 168.041L699.607 169.57C699.152 169.689 698.879 170.155 698.998 170.608C699.118 171.062 699.584 171.335 700.038 171.215L705.871 169.686C706.325 169.569 706.597 169.102 706.478 168.648C706.359 168.194 705.893 167.922 705.439 168.041ZM708.676 162.824L710.861 168.445C711.029 168.882 711.523 169.101 711.961 168.93C712.4 168.76 712.617 168.267 712.446 167.828L710.263 162.209C710.093 161.77 709.6 161.553 709.163 161.723C708.725 161.892 708.506 162.386 708.676 162.824ZM695.167 160.149L699.584 164.254C699.928 164.574 700.467 164.555 700.787 164.21C701.106 163.867 701.086 163.328 700.742 163.007L696.326 158.902C695.982 158.583 695.443 158.602 695.123 158.946C694.803 159.291 694.823 159.829 695.167 160.149ZM690.61 157.413L686.728 162.027C686.426 162.386 686.471 162.923 686.831 163.226C687.19 163.528 687.728 163.481 688.03 163.122L691.912 158.508C692.214 158.149 692.167 157.612 691.809 157.309C691.45 157.006 690.912 157.053 690.61 157.413ZM704.353 154.966L706.272 154.985L703.608 159.985C703.387 160.399 702.871 160.556 702.457 160.335C702.042 160.114 701.885 159.599 702.106 159.183L704.353 154.966ZM715.5 157.473C715.792 157.878 716.095 158.363 716.378 158.933L714.015 160.194C713.601 160.416 713.085 160.26 712.865 159.846C712.644 159.43 712.8 158.915 713.214 158.694L715.5 157.473Z" fill="white"/>
<path fill-rule="evenodd" clip-rule="evenodd" d="M690.023 155.4C690.023 155.4 687.466 127.981 697.212 122.706C697.212 122.706 702.401 119.084 705.406 117.651C705.407 117.651 705.407 117.651 705.407 117.651C705.489 117.612 710.188 115.427 708.758 120.96C708.758 120.96 706.935 125.304 703.371 128.074C703.371 128.074 706.62 134.856 701.323 140.475L698.913 152.115L708.772 154.508L710.206 145.957C710.206 145.957 708.047 144.99 710.151 142.859C710.151 142.859 707.249 140.552 710.386 138.133C710.386 138.133 706.779 136.25 709.696 133.572C709.696 133.572 704.829 130.609 710.335 127.543C710.335 127.543 714.346 124.759 715.734 126.788C716.312 127.634 716.686 129 714.895 130.4C714.895 130.4 718.15 131.421 715.885 135.149C716.512 134.965 719.008 137.3 715.878 139.652C715.878 139.652 720.474 141.546 713.747 145.518L714.069 156.315L690.023 155.4Z" fill="#DC7F64"/>
<path fill-rule="evenodd" clip-rule="evenodd" d="M713.212 144.335L713.218 145.582C712.302 145.977 711.397 146.216 710.593 146.227C710.232 146.233 709.892 146.194 709.574 146.109L709.801 144.996C710.168 145.109 710.59 145.118 711.038 145.057C711.724 144.963 712.469 144.702 713.212 144.335ZM715.366 138.477C715.513 138.517 715.902 138.661 716.398 139.165L709.116 143.568C709.052 143.607 708.981 143.631 708.91 143.643C708.916 142.755 709.848 141.867 709.848 141.867L715.366 138.477ZM701.4 139.79L700.984 141.593L699.987 142.407C699.745 142.604 699.386 142.568 699.189 142.325C698.99 142.082 699.027 141.725 699.269 141.526L701.4 139.79ZM715.575 134.016L715.56 134.037C715.56 134.037 716.005 133.921 716.617 134.72L708.773 139.345C708.984 138.017 710.232 137.185 710.232 137.185L710.185 137.195L715.575 134.016ZM714.783 129.366L714.766 129.389C714.766 129.389 715.224 129.467 715.808 130.05C715.794 130.063 715.778 130.074 715.761 130.084L708.515 134.776C708.595 133.717 709.645 132.7 709.645 132.7L709.624 132.705L714.783 129.366Z" fill="#B74D2F"/>
</svg>
