<svg width="19" height="19" viewBox="0 0 19 19" fill="none" xmlns="http://www.w3.org/2000/svg">
<path d="M11.7303 9.49865L18.5321 2.71174C18.83 2.41384 18.9973 2.0098 18.9973 1.5885C18.9973 1.16721 18.83 0.763164 18.5321 0.465262C18.2342 0.16736 17.8303 0 17.409 0C16.9878 0 16.5838 0.16736 16.2859 0.465262L9.5 7.26799L2.71406 0.465262C2.4162 0.16736 2.01221 -3.13891e-09 1.59098 0C1.16974 3.13891e-09 0.765755 0.16736 0.467895 0.465262C0.170035 0.763164 0.00269951 1.16721 0.00269951 1.5885C0.00269951 2.0098 0.170035 2.41384 0.467895 2.71174L7.26966 9.49865L0.467895 16.2856C0.319635 16.4326 0.201958 16.6076 0.121652 16.8004C0.041346 16.9932 0 17.2 0 17.4088C0 17.6176 0.041346 17.8244 0.121652 18.0172C0.201958 18.21 0.319635 18.385 0.467895 18.532C0.614944 18.6803 0.789894 18.798 0.982651 18.8783C1.17541 18.9587 1.38216 19 1.59098 19C1.79979 19 2.00654 18.9587 2.1993 18.8783C2.39206 18.798 2.56701 18.6803 2.71406 18.532L9.5 11.7293L16.2859 18.532C16.433 18.6803 16.6079 18.798 16.8007 18.8783C16.9935 18.9587 17.2002 19 17.409 19C17.6178 19 17.8246 18.9587 18.0173 18.8783C18.2101 18.798 18.3851 18.6803 18.5321 18.532C18.6804 18.385 18.798 18.21 18.8783 18.0172C18.9587 17.8244 19 17.6176 19 17.4088C19 17.2 18.9587 16.9932 18.8783 16.8004C18.798 16.6076 18.6804 16.4326 18.5321 16.2856L11.7303 9.49865Z" fill="black"/>
</svg>
