<svg width="23" height="23" viewBox="0 0 23 23" fill="none" xmlns="http://www.w3.org/2000/svg">
<path d="M4.29814 18.2969C4.35479 18.2969 4.41143 18.2912 4.46807 18.2827L9.23154 17.4473C9.28818 17.4359 9.34199 17.4104 9.38164 17.368L21.3866 5.36299C21.4129 5.33679 21.4337 5.30567 21.4479 5.27141C21.4621 5.23715 21.4694 5.20042 21.4694 5.16333C21.4694 5.12624 21.4621 5.08951 21.4479 5.05525C21.4337 5.02099 21.4129 4.98987 21.3866 4.96367L16.6798 0.254004C16.626 0.200195 16.5552 0.171875 16.4787 0.171875C16.4022 0.171875 16.3314 0.200195 16.2776 0.254004L4.27266 12.259C4.23018 12.3015 4.20469 12.3524 4.19336 12.4091L3.35791 17.1726C3.33036 17.3243 3.3402 17.4804 3.38659 17.6275C3.43298 17.7745 3.51451 17.9081 3.62412 18.0165C3.81103 18.1978 4.04609 18.2969 4.29814 18.2969ZM6.20693 13.3578L16.4787 3.08887L18.5546 5.16475L8.28281 15.4337L5.76514 15.8783L6.20693 13.3578ZM21.9219 20.6758H1.07812C0.576855 20.6758 0.171875 21.0808 0.171875 21.582V22.6016C0.171875 22.7262 0.273828 22.8281 0.398438 22.8281H22.6016C22.7262 22.8281 22.8281 22.7262 22.8281 22.6016V21.582C22.8281 21.0808 22.4231 20.6758 21.9219 20.6758Z" fill="black"/>
</svg>
