<svg width="19" height="20" viewBox="0 0 19 20" fill="none" xmlns="http://www.w3.org/2000/svg">
<path d="M18.3859 6.72628L12.6901 5.85479L10.1439 0.420401C10.0743 0.27161 9.95993 0.151161 9.8186 0.0779466C9.46415 -0.10627 9.03343 0.0472438 8.85621 0.420401L6.31002 5.85479L0.614191 6.72628C0.457157 6.7499 0.313583 6.82784 0.20366 6.94592C0.0707685 7.08972 -0.00246073 7.28318 6.31408e-05 7.48379C0.00258702 7.6844 0.0806575 7.87575 0.21712 8.0158L4.33813 12.2457L3.36452 18.2186C3.34169 18.3575 3.35629 18.5004 3.40668 18.6311C3.45706 18.7617 3.54121 18.8749 3.64958 18.9577C3.75795 19.0406 3.8862 19.0898 4.0198 19.0999C4.15339 19.1099 4.28699 19.0803 4.40543 19.0145L9.50004 16.1945L14.5947 19.0145C14.7337 19.0924 14.8953 19.1184 15.0501 19.0901C15.4404 19.0192 15.7029 18.6295 15.6356 18.2186L14.662 12.2457L18.783 8.0158C18.8951 7.90007 18.9692 7.74892 18.9916 7.5836C19.0522 7.17029 18.7785 6.78769 18.3859 6.72628V6.72628Z" fill="#FFCF6F"/>
</svg>
